<?xml version="1.0" encoding="utf-8"?>
<!-- Generator: Adobe Illustrator 18.0.0, SVG Export Plug-In . SVG Version: 6.00 Build 0)  -->
<!DOCTYPE svg PUBLIC "-//W3C//DTD SVG 1.1//EN" "http://www.w3.org/Graphics/SVG/1.1/DTD/svg11.dtd">
<svg version="1.1" id="MonoColor" xmlns="http://www.w3.org/2000/svg" xmlns:xlink="http://www.w3.org/1999/xlink" x="0px" y="0px"
	 viewBox="0 0 612 792" enable-background="new 0 0 612 792" xml:space="preserve">
<path fill="#66B1B7" d="M350.3,671l-95.4,0l0.4-218.7h-56.8c-7.4,0-13.4-6-13.4-13.4l-0.3-70.5c0-7.4,6-13.5,13.4-13.5H255v-68.1
	c0-79,48.3-122.1,118.8-122.1h57.9c7.4,0,13.4,6,13.4,13.4v59.4c0,7.4-6,13.4-13.4,13.4l-35.5,0c-38.3,0-45.8,18.2-45.8,45v59h84.3
	c8,0,14.3,7,13.3,15l-8.4,70.5c-0.8,6.7-6.5,11.8-13.3,11.8h-75.5L350.3,671"/>
</svg>
