<?xml version="1.0" encoding="utf-8"?>
<!-- Generator: Adobe Illustrator 18.0.0, SVG Export Plug-In . SVG Version: 6.00 Build 0)  -->
<!DOCTYPE svg PUBLIC "-//W3C//DTD SVG 1.1//EN" "http://www.w3.org/Graphics/SVG/1.1/DTD/svg11.dtd">
<svg version="1.1" id="MonoColor" xmlns="http://www.w3.org/2000/svg" xmlns:xlink="http://www.w3.org/1999/xlink" x="0px" y="0px"
	 viewBox="-20.1 66.7 613 613" enable-background="new -20.1 66.7 613 613" xml:space="preserve">
<path fill="#66B1B7" d="M327.4,679.6H211.9l0.5-264.8h-68.8c-9,0-16.2-7.3-16.2-16.2l-0.4-85.3c0-9,7.3-16.3,16.2-16.3H212v-82.4
	c0-95.6,58.5-147.8,143.8-147.8H426c9,0,16.2,7.3,16.2,16.2v71.9c0,9-7.3,16.2-16.2,16.2h-43c-46.4,0-55.4,22-55.4,54.5V297h102.1
	c9.7,0,17.3,8.5,16.1,18.2l-10.2,85.3c-1,8.1-7.9,14.3-16.1,14.3H328L327.4,679.6"/>
</svg>
