<?xml version="1.0" encoding="utf-8"?>
<!DOCTYPE svg PUBLIC "-//W3C//DTD SVG 1.1//EN" "http://www.w3.org/Graphics/SVG/1.1/DTD/svg11.dtd">
<svg version="1.1" id="MonoColor" xmlns="http://www.w3.org/2000/svg" xmlns:xlink="http://www.w3.org/1999/xlink" x="0px" y="0px"
	 viewBox="0 0 612 792" enable-background="new 0 0 612 792" xml:space="preserve">
<g>
	<path fill="#66B1B7" d="M428.7,89H181.3C80.8,89-1,170.8-1,271.3v247.4C-1,619.2,80.8,701,181.3,701h247.4
		C529.2,701,611,619.2,611,518.7V271.3C611,170.8,529.2,89,428.7,89z M549.4,518.7c0,66.7-54.1,120.8-120.8,120.8H181.3
		c-66.7,0-120.8-54.1-120.8-120.8V271.3c0-66.7,54.1-120.8,120.8-120.8h247.4c66.7,0,120.8,54.1,120.8,120.8V518.7L549.4,518.7z"/>
	<path fill="#66B1B7" d="M305,236.7c-87.3,0-158.3,71-158.3,158.3s71,158.3,158.3,158.3s158.3-71,158.3-158.3S392.3,236.7,305,236.7
		z M305,491.7c-53.4,0-96.7-43.3-96.7-96.7s43.3-96.7,96.7-96.7c53.4,0,96.7,43.3,96.7,96.7C401.7,448.4,358.4,491.7,305,491.7z"/>
	<circle fill="#66B1B7" cx="463.6" cy="237.9" r="37.9"/>
</g>
</svg>
