<?xml version="1.0" encoding="utf-8"?>
<!-- Generator: Adobe Illustrator 18.0.0, SVG Export Plug-In . SVG Version: 6.00 Build 0)  -->
<!DOCTYPE svg PUBLIC "-//W3C//DTD SVG 1.1//EN" "http://www.w3.org/Graphics/SVG/1.1/DTD/svg11.dtd">
<svg version="1.1" id="MonoColor" xmlns="http://www.w3.org/2000/svg" xmlns:xlink="http://www.w3.org/1999/xlink" x="0px" y="0px"
	 viewBox="0 0 612 792" enable-background="new 0 0 612 792" xml:space="preserve">
<path fill="#66B1B7" d="M533.8,597.8c47.9-54,77.2-125.1,77.2-202.8c0-80.9-31.6-154.5-83.1-209.3v0c0-0.1-0.1-0.1-0.1-0.1
	c-53.6-57-128.7-93.4-212.2-96.3l0,0l-6-0.2c-1.5-0.1-3.1-0.1-4.6-0.1c-1.6,0-3.1,0.1-4.6,0.1l-5.9,0.2l0,0
	c-83.5,2.9-158.6,39.3-212.2,96.3c0,0.1-0.1,0.1-0.1,0.1c0,0,0,0,0,0C30.6,240.5-1,314.1-1,395c0,77.8,29.2,148.8,77.2,202.8
	c0.1,0.1,0.1,0.2,0.1,0.3c0.2,0.3,0.5,0.4,0.7,0.6c53.9,60.2,131.2,99,217.4,102l0,0l5.9,0.2c1.6,0,3.1,0.1,4.6,0.1
	c1.6,0,3.1-0.1,4.6-0.1l5.9-0.2l0,0c86.4-3,163.8-41.8,217.6-102.2c0.1-0.2,0.4-0.2,0.5-0.4C533.8,598,533.8,597.9,533.8,597.8z
	 M20.4,405.6H147c1.2,44.7,9.9,88.2,25.5,128.9c-30,10.9-58.7,25.4-85.6,43.6C47.4,531,22.8,471.1,20.4,405.6z M92.7,205.3
	c26.3,17.1,54.2,30.7,83.4,41c-17.9,43.3-27.7,90.1-29,138.2H20.4C22.9,315.8,49.8,253.3,92.7,205.3z M589.6,384.4H463
	c-1.3-48.1-11.2-94.8-29-138.2c29.2-10.2,57.1-23.9,83.4-41C560.2,253.3,587.1,315.8,589.6,384.4z M294.4,246.9
	c-30.5-0.9-60.5-5.4-89.4-13.5c21.4-43.9,51.6-83.5,89.4-116.4V246.9z M294.4,268v116.5H168.1c1.3-45.9,10.9-90.4,28.1-131.6
	C228,262,260.9,267.1,294.4,268z M315.6,268c33.5-0.9,66.5-6,98.2-15.2c17.2,41.3,26.8,85.8,28.1,131.6H315.6V268z M315.6,246.9
	v-130c37.8,33,68,72.6,89.4,116.4C376,241.5,346.1,246,315.6,246.9z M425.4,226.9c-20.3-42.5-48.4-81.2-83.2-114.3
	c61.8,8.1,117.4,36,160.2,77.2C478,205.2,452.3,217.7,425.4,226.9z M184.6,226.9c-26.9-9.3-52.7-21.7-77-37.1
	c42.8-41.2,98.4-69.1,160.2-77.2C233,145.8,204.9,184.5,184.6,226.9z M168.1,405.6h126.3v105.9c-34.9,0.9-69.1,6.4-101.9,16.3
	C177.7,489.2,169.3,448,168.1,405.6z M294.4,532.6v140.5c-40.5-35.3-72.2-78.2-93.7-125.7C231,538.4,262.4,533.5,294.4,532.6z
	 M315.6,673.1V532.6c32.1,0.9,63.5,5.9,93.7,14.8C387.7,594.9,356,637.8,315.6,673.1z M315.6,511.5V405.6h126.3
	c-1.2,42.4-9.5,83.6-24.4,122.2C384.6,517.8,350.4,512.4,315.6,511.5z M463,405.6h126.7c-2.4,65.5-27,125.5-66.5,172.5
	c-26.9-18.2-55.6-32.7-85.6-43.6C453.1,493.7,461.8,450.3,463,405.6z M101.3,593.9c25-16.6,51.5-29.9,79.3-39.9
	c20.5,46,50,87.9,87.3,123.4C202.9,668.9,144.9,638.5,101.3,593.9z M342.2,677.4c37.3-35.5,66.8-77.4,87.3-123.4
	c27.8,10,54.3,23.3,79.3,39.9C465.1,638.5,407.1,668.9,342.2,677.4z"/>
</svg>
