<?xml version="1.0" encoding="utf-8"?>
<!-- Generator: Adobe Illustrator 18.0.0, SVG Export Plug-In . SVG Version: 6.00 Build 0)  -->
<!DOCTYPE svg PUBLIC "-//W3C//DTD SVG 1.1//EN" "http://www.w3.org/Graphics/SVG/1.1/DTD/svg11.dtd">
<svg version="1.1" id="Capa_1" xmlns="http://www.w3.org/2000/svg" xmlns:xlink="http://www.w3.org/1999/xlink" x="0px" y="0px"
	 viewBox="-0.5 89.5 613 613" enable-background="new -0.5 89.5 613 613" xml:space="preserve">
<g>
	<path fill="#66B1B7" d="M306,701.5c168.7,0,305.5-136.8,305.5-305.5S474.7,90.5,306,90.5S0.5,227.3,0.5,396S137.3,701.5,306,701.5z
		 M306,128.7c147.4,0,267.4,119.9,267.4,267.4c0,147.4-119.9,267.4-267.4,267.4S38.7,543.4,38.7,396S158.6,128.7,306,128.7z"/>
	<polygon fill="#66B1B7" points="150.4,368.4 172.6,451.6 196.5,451.6 223.5,340.4 200.9,340.4 183.8,418.1 164.3,340.4 
		137.6,340.4 117.2,416.8 100.4,340.4 77.5,340.4 104,451.6 128.4,451.6 	"/>
	<polygon fill="#66B1B7" points="285.1,451.6 307.2,368.4 329.4,451.6 353.2,451.6 380.3,340.4 357.6,340.4 340.5,418.1 
		321.1,340.4 294.3,340.4 274,416.8 257.2,340.4 234.2,340.4 260.8,451.6 	"/>
	<polygon fill="#66B1B7" points="441.9,451.6 464,368.4 486.1,451.6 510,451.6 537,340.4 514.4,340.4 497.3,418.1 477.8,340.4 
		451.1,340.4 430.7,416.8 413.9,340.4 391,340.4 417.5,451.6 	"/>
</g>
</svg>
