<?xml version="1.0" encoding="utf-8"?>
<!-- Generator: Adobe Illustrator 18.0.0, SVG Export Plug-In . SVG Version: 6.00 Build 0)  -->
<!DOCTYPE svg PUBLIC "-//W3C//DTD SVG 1.1//EN" "http://www.w3.org/Graphics/SVG/1.1/DTD/svg11.dtd">
<svg version="1.1" id="twitter" xmlns="http://www.w3.org/2000/svg" xmlns:xlink="http://www.w3.org/1999/xlink" x="0px" y="0px"
	 viewBox="-0.5 89.5 613 613" enable-background="new -0.5 89.5 613 613" xml:space="preserve">
<g id="Logo__x2014__FIXED_2_">
	<path fill="#66B1B7" d="M193,643.4c229.6,0,355.2-190.3,355.2-355.2c0-5.4,0-10.7-0.3-16.1c24.3-17.5,45.5-39.6,62.4-64.8
		c-22.4,10-46.5,16.5-71.8,19.7c25.8-15.3,45.5-39.9,55.1-69.2c-24,14.3-50.9,24.7-79.4,30.2c-22.9-24.3-55.2-39.5-91-39.5
		c-68.9,0-124.9,56-124.9,124.9c0,9.7,1.3,19.3,3.2,28.5C197.6,296.9,105.7,247,44.1,171.5c-10.7,18.5-16.9,39.9-16.9,62.9
		c0,43.3,22.1,81.6,55.5,103.9c-20.5-0.8-39.6-6.4-56.5-15.6c0,0.5,0,1,0,1.8c0,60.3,43.1,111.1,100.1,122.5
		c-10.5,2.9-21.5,4.5-32.9,4.5c-8,0-15.8-0.8-23.4-2.2c15.8,49.6,62.1,85.8,116.6,86.7c-42.8,33.6-96.6,53.6-155.2,53.6
		c-10,0-19.9-0.5-29.8-1.8C57,622.7,122.7,643.4,193,643.4"/>
</g>
</svg>
